<?xml version="1.0" encoding="utf-8"?>
<svg version="1.1" xmlns="http://www.w3.org/2000/svg" xmlns:xlink="http://www.w3.org/1999/xlink" x="0px" y="0px" width="128px" height="64px"
	 viewBox="0 0 128 63.3">
<style type="text/css">
	.st0{fill-rule:evenodd;clip-rule:evenodd;fill:#004990;}
	.st1{fill-rule:evenodd;clip-rule:evenodd;fill:#FFFFFF;}
	.st2{fill:#004990;}
</style>
	<g>
		<polyline class="st0" points="0,63.3 64.7,63.3 128,0 0,0 0,63.3"/>
		<path class="st1" d="M76,11.9l-12.6,0v29.9l-11-29.9H41.5l-9.4,25c-1-6.3-7.5-8.5-12.7-10.1c-3.4-1.1-7-2.7-6.9-4.5
			c0-1.5,1.9-2.8,5.7-2.6c2.5,0.1,4.8,0.3,9.2,2.5l4.4-7.6c-4.1-2.1-9.7-3.4-14.3-3.4h0c-5.4,0-9.8,1.7-12.6,4.6c-1.9,2-3,4.5-3,7.3
			C1.8,27,3.2,29.8,6.2,32c2.5,1.8,5.7,3,8.6,3.9c3.5,1.1,6.4,2,6.3,4c0,0.7-0.3,1.4-0.8,2c-0.9,0.9-2.2,1.2-4.1,1.3
			c-3.6,0.1-6.2-0.5-10.4-3l-3.9,7.7c4.2,2.4,9.2,3.8,14.3,3.8l0.7,0c4.4-0.1,8-1.3,10.8-3.6c0.2-0.1,0.3-0.3,0.5-0.4L26.8,51h11.4
			l1.9-5.8c2,0.7,4.3,1.1,6.7,1.1c2.4,0,4.6-0.4,6.6-1l1.9,5.8h18.7V38.9H78c9.8,0,15.7-5,15.7-13.4C93.7,16.2,88,11.9,76,11.9
			M46.9,37.5c-1.5,0-2.8-0.3-4-0.7l4-12.6h0.1l3.9,12.6C49.6,37.3,48.3,37.5,46.9,37.5z M76.7,30.3h-2.8V20.1h2.8
			c3.7,0,6.6,1.2,6.6,5C83.4,29.1,80.4,30.3,76.7,30.3"/>
		<path class="st2" d="M80.3,59.2c0-1.9,1.5-3.4,3.4-3.4c1.9,0,3.3,1.5,3.3,3.4c0,2-1.5,3.5-3.3,3.5C81.8,62.6,80.3,61.2,80.3,59.2
			M83.6,63.3c2.2,0,4.1-1.8,4.1-4.1c0-2.4-1.9-4.1-4.1-4.1c-2.3,0-4.2,1.7-4.2,4.1C79.5,61.5,81.4,63.3,83.6,63.3z M82.8,59.5h0.8
			l1.3,2h0.8l-1.3-2.1c0.7-0.1,1.2-0.5,1.2-1.3c0-0.9-0.5-1.4-1.7-1.4h-1.8v4.7h0.7V59.5z M82.8,58.9v-1.5h1c0.5,0,1,0.1,1,0.7
			c0,0.7-0.5,0.8-1.1,0.8H82.8z"/>
	</g>
</svg>
